<?xml version="1.0" encoding="UTF-8" standalone="no"?>
<!-- Created with Inkscape (http://www.inkscape.org/) -->

<svg
   xmlns:dc="http://purl.org/dc/elements/1.1/"
   xmlns:cc="http://creativecommons.org/ns#"
   xmlns:rdf="http://www.w3.org/1999/02/22-rdf-syntax-ns#"
   xmlns:svg="http://www.w3.org/2000/svg"
   xmlns="http://www.w3.org/2000/svg"
   xmlns:xlink="http://www.w3.org/1999/xlink"
   xmlns:sodipodi="http://sodipodi.sourceforge.net/DTD/sodipodi-0.dtd"
   xmlns:inkscape="http://www.inkscape.org/namespaces/inkscape"
   width="303"
   height="133.70599"
   viewBox="0 0 303.00002 133.706"
   id="svg3458"
   version="1.1"
   inkscape:version="0.91 r13725"
   sodipodi:docname="test_2.svg">
  <defs
     id="defs3460">
    <inkscape:perspective
       sodipodi:type="inkscape:persp3d"
       inkscape:vp_x="0 : 66.853 : 1"
       inkscape:vp_y="0 : 1000 : 0"
       inkscape:vp_z="303.00002 : 66.853 : 1"
       inkscape:persp3d-origin="151.50001 : 44.568667 : 1"
       id="perspective3805" />
    <clipPath
       id="SVGID_2_">
      <rect
         height="117"
         width="361"
         y="57"
         x="31.451"
         id="use9" />
    </clipPath>
    <clipPath
       id="SVGID_2_-2">
      <use
         height="100%"
         width="100%"
         y="0"
         x="0"
         style="overflow:visible"
         xlink:href="#SVGID_1_"
         overflow="visible"
         id="use9-5" />
    </clipPath>
  </defs>
  <sodipodi:namedview
     id="base"
     pagecolor="#ffffff"
     bordercolor="#666666"
     borderopacity="1.0"
     inkscape:pageopacity="0.0"
     inkscape:pageshadow="2"
     inkscape:zoom="2.8"
     inkscape:cx="165.08329"
     inkscape:cy="44.963418"
     inkscape:document-units="px"
     inkscape:current-layer="layer1"
     showgrid="false"
     inkscape:window-width="1920"
     inkscape:window-height="1018"
     inkscape:window-x="-8"
     inkscape:window-y="-8"
     inkscape:window-maximized="1"
     units="px" />
  <metadata
     id="metadata3463">
    <rdf:RDF>
      <cc:Work
         rdf:about="">
        <dc:format>image/svg+xml</dc:format>
        <dc:type
           rdf:resource="http://purl.org/dc/dcmitype/StillImage" />
        <dc:title></dc:title>
      </cc:Work>
    </rdf:RDF>
  </metadata>
  <g
     inkscape:label="Layer 1"
     inkscape:groupmode="layer"
     id="layer1"
     transform="translate(0,-918.6562)">
    <g
       transform="matrix(0.9351853,0,0,2.0000024,-30.347698,704.75992)"
       id="g3">
      <defs
         id="defs5">
        <rect
           id="SVGID_1_"
           x="31.451"
           y="57"
           width="361"
           height="117" />
      </defs>
      <clipPath
         id="clipPath3420">
        <use
           height="100%"
           width="100%"
           y="0"
           x="0"
           style="overflow:visible"
           xlink:href="#SVGID_1_"
           overflow="visible"
           id="use3422" />
      </clipPath>
      <path
         style="fill:none;stroke:#000000;stroke-width:0.50400001;stroke-miterlimit:10"
         inkscape:connector-curvature="0"
         clip-path="url(#SVGID_2_-2)"
         stroke-miterlimit="10"
         d="m 32.451,121.717 324,0 m -324,8.14 324,0 m -324,8.141 324,0 m -324,8.141 324,0"
         id="path11" />
    </g>
    <path
       inkscape:connector-curvature="0"
       d="m 7.7540024,961.34829 c 0.5840001,-0.448 0.8780002,-1.086 0.8780002,-1.912 l 0,-9.14801 -0.5180001,0.516 c -0.9640003,0.828 -2.2400006,1.242 -3.824001,1.242 -1.0340003,0 -1.9120005,-0.378 -2.6360007,-1.138 -0.72400016,-0.756 -1.08600025,-1.688 -1.08600025,-2.792 0,-1.10199 0.36200009,-2.03205 1.08600025,-2.79205 0.7240002,-0.756 1.6020004,-1.136 2.6360007,-1.136 1.5500004,0 2.8260007,0.448 3.824001,1.344 l 0.5180001,0.464 0,-9.09601 c 0,-0.724 -0.2580001,-1.318 -0.7760002,-1.784 -0.5180001,-0.466 -1.2580003,-0.714 -2.2220006,-0.75 -1.7240004,0 -3.0840007,0.458 -4.084001,1.37 -1.00000025,0.914 -1.50000038,2.232 -1.50000038,3.95601 l 0,16.85006 c 0,1.722 0.50000013,3.058 1.50000038,4.004 1.0000003,0.95 2.3600006,1.44 4.084001,1.474 0.8280002,0 1.5320004,-0.224 2.1200006,-0.672 l 0,0 z"
       id="path13" />
    <path
       inkscape:connector-curvature="0"
       d="m 9.7260029,1045.3862 c 0,0.644 0.168,1.242 0.5980001,1.672 0.55,0.574 1.196,0.716 2.222001,0.716 1.72002,0 3.05802,-1.48 3.15402,-1.48 0.12,0 0.526001,1.314 1.912,1.314 1.004001,0 1.506001,-0.144 1.506001,-0.502 0,-0.862 -1.816,0.572 -1.816,-2.606 0,-1.792 0.12,-1.338 0.12,-4.444 0,-0.908 0,-3.012 -3.584021,-3.012 -2.054001,0 -4.0140011,1.41 -4.0140011,2.628 0,0.812 1.1960001,0.932 1.4820001,0.932 0.262,0 0.43,-0.072 0.43,-0.478 0,-0.214 -0.096,-0.502 -0.096,-0.86 0,-0.598 0.214,-1.434 1.720001,-1.434 0.668,0 2.31802,0.502 2.31802,2.58 0,0.382 -0.048,0.766 -0.048,1.242 0,0.31 -0.144,0.336 -0.406,0.382 -2.98802,0.53 -5.4980211,0.77 -5.4980211,3.35 l 0,0 z m 1.8660001,-0.358 c 0,-1.982 2.102001,-2.27 3.632021,-2.532 0.072,0 0.166,-0.048 0.24,-0.048 0.096,0 0.166,0.072 0.166,0.214 l 0,1.72 c 0,0.79 0,2.438 -2.19802,2.438 -1.196,0 -1.840001,-0.716 -1.840001,-1.792 l 0,0 z"
       id="path15" />
    <line
       style="fill:none;stroke:#000000;stroke-width:1.00800073;stroke-miterlimit:10"
       stroke-miterlimit="10"
       x1="10.144002"
       y1="1013.3182"
       x2="29.062006"
       y2="1013.3182"
       id="line17" />
    <path
       inkscape:connector-curvature="0"
       d="m 15.312024,1018.7722 0,8.168 c 0.930001,-0.966 2.36,-1.448 4.290001,-1.448 1.93,0 3.360001,0.48 4.290001,1.448 l 0,-8.168 c 0,-1.62 -1.448001,-2.428 -4.342001,-2.428 -2.826,0 -4.238001,0.808 -4.238001,2.428 l 0,0 0,0 z"
       id="path19" />
    <path
       inkscape:connector-curvature="0"
       d="m 34.516029,1030.9062 c 0,0.214 0.192,0.264 0.382,0.264 l 0.238,0 c 0.884,0 1.076,1.146 1.076,2.174 l 0,5.902 c 0,2.7 -0.214,4.492 -0.214,6.308 0,0.142 -0.096,1.384 -0.096,1.958 0,0.214 0.048,0.31 0.288,0.31 0.598,0 0.908,-1.53 1.17,-1.53 0.166,0 1.290001,1.384 3.512001,1.384 1.338,0 2.438001,-0.38 3.322001,-1.05 1.482,-1.124 2.174001,-3.56 2.174001,-4.826 0,-2.414 -1.482001,-4.948 -4.492002,-4.948 -3.394,0 -3.394,1.602 -3.776001,1.602 -0.12,0 -0.166,-0.238 -0.166,-0.86 0,-7.934 0.024,-6.956 0.024,-7.814 0,-0.264 -0.216,-0.43 -0.358,-0.43 -0.24,0 -1.028,0.43 -1.53,0.644 -0.454,0.196 -1.554,0.41 -1.554,0.912 l 0,0 z m 3.418,13.358 0,-4.324 c 0,-0.288 0.072,-0.55 0.764001,-1.126 0.502,-0.43 1.218,-0.668 1.912,-0.668 2.724001,0 4.206001,2.534 4.206001,4.852 0,1.982 -1.076,3.822 -3.392001,3.822 -2.438,0 -3.490001,-2.008 -3.490001,-2.556 l 0,0 z"
       id="path21" />
    <line
       style="fill:none;stroke:#000000;stroke-width:1.00800073;stroke-miterlimit:10"
       stroke-miterlimit="10"
       x1="31.309992"
       y1="1013.3182"
       x2="50.228008"
       y2="1013.3182"
       id="line23" />
    <path
       inkscape:connector-curvature="0"
       d="m 36.480029,1010.6322 0,8.166 c 0.93,-0.964 2.360001,-1.448 4.290001,-1.448 1.930001,0 3.360001,0.482 4.290001,1.448 l 0,-8.166 c 0,-1.6201 -1.448,-2.4301 -4.342001,-2.4301 -2.826001,0 -4.238001,0.81 -4.238001,2.4301 l 0,0 0,0 z"
       id="path25" />
    <path
       inkscape:connector-curvature="0"
       d="m 59.612035,1042.8302 c 0,3.202 1.981996,5.09 4.945997,5.09 3.082001,0 4.348001,-2.032 4.348001,-2.246 0,-0.12 -0.12,-0.24 -0.262,-0.24 -0.31,0 -1.244,1.244 -3.154001,1.244 -2.318,0 -4.086001,-2.176 -4.086001,-4.614 0,-3.32 1.888001,-3.966 2.366001,-3.966 1.266,0 2.628001,0.79 3.178001,1.268 0.406,0.334 0.454,0.764 0.79,0.764 0.192,0 0.262,-0.502 0.262,-1.05 0,-0.406 -0.024,-0.836 -0.048,-1.124 -0.048,-0.454 -1.816,-0.79 -2.796001,-0.79 -3.392001,0 -5.543997,2.748 -5.543997,5.664 l 0,0 z"
       id="path27" />
    <path
       inkscape:connector-curvature="0"
       d="m 59.794035,1002.4901 0,8.1661 c 0.929996,-0.9641 2.359997,-1.4481 4.289997,-1.4481 1.930001,0 3.360001,0.482 4.290001,1.4481 l 0,-8.1661 c 0,-1.62 -1.448,-2.43 -4.342001,-2.43 -2.826001,0 -4.237997,0.812 -4.237997,2.43 l 0,0 0,0 z"
       id="path29" />
    <path
       inkscape:connector-curvature="0"
       d="m 81.790039,1042.7582 c 0,2.556 1.578,4.994 4.708001,4.994 2.27,0 3.226001,-1.552 3.490001,-1.552 0.19,0 0.214,0.238 0.214,0.406 0,0.43 0.072,0.668 0.072,0.884 0,0.19 0.096,0.262 0.262,0.262 0.288,0 0.812,-0.192 1.506,-0.238 1.744003,-0.144 1.840003,-0.31 1.840003,-0.43 0,-0.406 -0.646001,-0.382 -1.028001,-0.502 -0.694002,-0.214 -0.836002,-0.716 -0.836002,-2.892 0,-1.72 0.048,-4.42 0.048,-8.72 0,-2.008 0.310002,-4.684 0.310002,-5.186 0,-0.36 -0.12,-0.478 -0.286002,-0.478 -0.288,0 -0.646,0.24 -0.932,0.36 -1.888001,0.86 -2.700001,0.788 -2.700001,1.146 l 0,0.024 c 0,0.168 0,0.192 0.5,0.192 l 0.264,0 c 1.266001,0 1.266001,1.076 1.266001,2.676 0,0.862 -0.046,0 -0.046,3.084 0,0.716 -0.048,0.86 -0.12,0.86 -0.334,0 -1.648001,-0.694 -2.724001,-0.694 -3.872001,-0 -5.808001,2.96 -5.808001,5.804 l 0,0 z m 1.722,-1.122 c 0,-2.222 1.194,-3.99 3.322001,-3.99 0.86,0 2.08,0.598 2.844001,1.05 0.334,0.192 0.668,0.526 0.668,1.84 0,0.406 0,0 -0.024,4.086 0,1.1 -1.458001,1.888 -2.844001,1.888 -2.486001,0 -3.966001,-2.676 -3.966001,-4.874 l 0,0 z"
       id="path31" />
    <path
       inkscape:connector-curvature="0"
       d="m 83.322039,994.35013 0,8.16597 c 0.93,-0.964 2.36,-1.448 4.290001,-1.448 1.928,0 3.360001,0.482 4.290001,1.448 l 0,-8.16597 c 0,-1.62 -1.446,-2.43 -4.340001,-2.43 -2.828001,0 -4.240001,0.81 -4.240001,2.43 l 0,0 0,0 z"
       id="path33" />
    <path
       inkscape:connector-curvature="0"
       d="m 106.67004,1042.7822 c 0,3.56 2.48601,5.09 5.04201,5.09 2.796,0 4.23,-2.054 4.23,-2.316 0,-0.096 -0.12,-0.216 -0.24,-0.216 -0.406,0 -1.434,1.076 -3.13,1.076 -1.984,0 -4.04,-1.648 -4.04,-4.826 0,-0.24 0,-0.264 0.264,-0.264 l 0.716,0 5.424,0 c 0.668,0 0.98,-0.096 0.98,-0.43 0,-0.36 -0.812,-3.798 -4.396,-3.798 -2.914,-0 -4.85001,2.578 -4.85001,5.684 l 0,0 z m 2.00801,-2.366 c 0,-0.836 0.716,-2.722 2.438,-2.722 1.888,0 2.582,2.006 2.582,2.626 0,0.214 -0.048,0.288 -0.502,0.288 -0.406,0 -3.106,0.144 -4.206,0.144 -0.266,0 -0.312,-0.12 -0.312,-0.336 l 0,0 z"
       id="path35" />
    <path
       inkscape:connector-curvature="0"
       d="m 107.02004,986.21012 0,8.16601 c 0.93001,-0.964 2.36001,-1.448 4.29001,-1.448 1.93,0 3.36,0.482 4.29,1.448 l 0,-8.16601 c 0,-1.622 -1.448,-2.43 -4.342,-2.43 -2.826,0 -4.23801,0.808 -4.23801,2.43 l 0,0 0,0 z"
       id="path37" />
    <path
       inkscape:connector-curvature="0"
       d="m 128.07805,1038.2182 c 0,0.142 0.024,0.31 0.526,0.31 0.406,0 0.694,-0.072 0.956,-0.072 0.31,0 0.406,0.024 0.406,0.382 0,4.492 0.096,6.068 0.096,6.738 0,1.458 -1.17,1.292 -1.17,1.648 0,0.264 0.144,0.334 0.358,0.334 0.932,0 0.884,-0.12 1.768,-0.12 0.55001,0 2.31801,0.12 2.39001,0.12 0.24,0 0.262,-0.142 0.262,-0.238 0,-0.168 -0.024,-0.36 -0.406,-0.36 -1.482,0 -1.482,-1.266 -1.504,-2.174 -0.024,-1.028 -0.12,-4.3 -0.12,-4.73 l 0,-1.386 c 0,-0.214 0.166,-0.238 0.382,-0.238 1.482,0 0.742,-0.026 1.864,-0.026 0.286,0 0.5,-0.07 0.596,-0.214 0.12,-0.214 0.334,-0.5 0.334,-0.906 0,-0.096 -0.048,-0.192 -0.12,-0.192 -0.144,0 -0.288,0.192 -0.502,0.238 -0.502,0.096 -1.292,0.192 -2.294,0.192 -0.24,0 -0.288,-0.192 -0.288,-0.456 l 0,-0.596 c 0,-2.342 0.502,-5.426 2.508,-5.426 1.506,0 1.41,0.622 1.698,0.622 0.382,0 0.406,-0.286 0.548,-0.764 0.072,-0.288 0.144,-0.526 0.144,-0.67 0,-0.406 -0.502,-0.668 -1.242,-0.668 -1.72,0 -5.25601,2.46 -5.25601,7.382 0,0.336 -0.024,0.55 -0.43,0.55 l -0.502,0 c -0.764,0 -1.002,0.124 -1.002,0.72 l 0,0 z"
       id="path39" />
    <path
       inkscape:connector-curvature="0"
       d="m 127.21805,978.06831 0,8.16581 c 0.93,-0.964 2.36,-1.448 4.29001,-1.448 1.93,0 3.36,0.482 4.29,1.448 l 0,-8.16581 c 0,-1.62 -1.448,-2.43 -4.342,-2.43 -2.82401,0 -4.23801,0.812 -4.23801,2.43 l 0,0 0,0 z"
       id="path41" />
    <path
       inkscape:connector-curvature="0"
       d="m 147.06606,1049.7362 c 0,2.078 2.582,2.626 4.446,2.626 2.46,0 4.516,-1.002 5.136,-2.556 0.144,-0.334 0.168,-0.716 0.168,-1.124 0,-2.032 -2.342,-2.102 -3.464,-2.102 l -1.1,0 c -1.984,0 -3.202,-0.072 -3.202,-1.244 0,-1.124 1.028,-1.17 1.076,-1.17 0.358,0 0.764,0.214 1.84,0.214 2.198,0 3.942,-1.602 3.942,-3.63 0,-0.478 -0.262,-1.196 -0.262,-1.196 0.334,-0.144 0.716,-0.336 0.98,-0.742 0.214,-0.334 0.526,-1.338 0.526,-2.174 0,-0.192 -0.238,-0.192 -0.31,-0.192 -0.406,0 -0.24,0.884 -0.86,1.148 -0.454,0.19 -0.86,0.43 -1.218,0.43 -0.334,0 -0.908,-0.958 -3.01,-0.958 -3.416,0 -4.134,2.414 -4.134,3.656 0,2.51 1.626,2.82 1.626,3.204 0,0.238 -1.242,0.74 -1.242,2.366 0,1.05 0.788,1.266 0.788,1.41 -0.006,0.242 -1.726,0.576 -1.726,2.034 l 0,0 z m 1.386,-0.144 c 0,-1.004 0.884,-1.602 1.098,-1.602 0.262,0 1.672,0.336 2.94,0.336 l 0.214,0 c 1.362,0 2.652,0 2.652,1.218 0,1.338 -2.006,2.174 -3.846,2.174 -1.576,0 -3.058,-0.62 -3.058,-2.126 l 0,0 z m 0.98,-9.104 c 0,-1.936 1.028,-2.89 2.126,-2.89 1.624,0 2.484,1.744 2.484,3.392 0,1.48 -0.716,2.844 -2.222,2.844 -1.384,0 -2.388,-1.434 -2.388,-3.346 l 0,0 z"
       id="path43" />
    <path
       inkscape:connector-curvature="0"
       d="m 147.67806,969.9283 0,8.16801 c 0.93,-0.966 2.36,-1.45 4.29,-1.45 1.93,0 3.36,0.482 4.29,1.45 l 0,-8.16801 c 0,-1.62 -1.448,-2.43 -4.342,-2.43 -2.824,0 -4.238,0.81 -4.238,2.43 l 0,0 0,0 z"
       id="path45" />
    <path
       inkscape:connector-curvature="0"
       d="m 169.65207,1030.7642 c 0,0.142 0.142,0.238 0.406,0.238 0.072,0 0.048,0.024 0.406,0.024 1.004,0 1.004,0.502 1.004,4.684 l 0,1.172 -0.096,8.146 c 0,0.958 -0.12,1.554 -1.098,1.842 -0.264,0.07 -0.288,0.19 -0.288,0.31 0,0.142 -0.024,0.238 0.646,0.238 0.358,0 1.362,-0.12 1.696,-0.12 0.12,0 2.534,0.12 2.556,0.12 0.144,0 0.262,-0.144 0.262,-0.288 0,-0.43 -0.716,-0.214 -1.218,-0.43 -0.884,-0.382 -0.956,-1.506 -0.956,-2.652 l 0,-0.55 c 0,-3.488 0.094,-3.964 0.668,-4.42 0.55,-0.43 1.41,-0.932 2.318,-0.932 1.578,0 2.962,1.626 2.962,3.584 0,3.966 -0.048,3.56 -0.048,3.966 0,1.626 -1.29,0.716 -1.29,1.506 0,0.192 0.24,0.238 0.55,0.238 0.192,0 1.458,-0.072 1.84,-0.072 0.502,0 1.72,0.122 2.006,0.122 0.382,0 0.742,-0.072 0.742,-0.382 0,-0.288 -0.574,-0.43 -1.29,-0.502 -0.67,-0.072 -0.79,-1.028 -0.79,-1.386 l 0,-3.464 c 0,-3.32 -1.626,-4.708 -4.086,-4.708 -1.984,0 -3.13,1.768 -3.37,1.768 -0.144,0 -0.192,-0.166 -0.192,-0.454 0,-0.694 0.096,-0.694 0.166,-7.026 0,-0.812 0.168,-1.146 0.168,-1.48 0,-0.168 -0.024,-0.55 -0.31,-0.55 -0.288,0 -1.076,0.382 -1.72,0.67 -0.64,0.286 -1.644,0.332 -1.644,0.788 l 0,0 z"
       id="path47" />
    <path
       inkscape:connector-curvature="0"
       d="m 171.90207,961.78829 0,8.16801 c 0.93,-0.964 2.36,-1.45 4.29,-1.45 1.93,0 3.36,0.484 4.29,1.45 l 0,-8.16801 c 0,-1.618 -1.448,-2.43 -4.34,-2.43 -2.828,0 -4.24,0.812 -4.24,2.43 l 0,0 0,0 z"
       id="path49" />
    <path
       inkscape:connector-curvature="0"
       d="m 195.30208,1038.3142 c 0,0.094 0.12,0.19 0.24,0.238 0.526,0.192 1.386,-0.144 1.386,1.84 l 0,2.104 c 0,4.132 -0.048,3.99 -0.98,4.3 -0.214,0.072 -0.358,0.288 -0.358,0.454 0,0.24 0.358,0.31 0.956,0.31 0.406,0 0.692,-0.046 1.696,-0.046 0.908,0 0.694,0.046 1.696,0.046 0.12,0 0.26399,0.024 0.35799,0.024 0.382,0 0.406,-0.262 0.406,-0.404 0,-0.336 -0.31,-0.336 -0.71599,-0.36 -0.596,-0.046 -1.338,-0.192 -1.338,-1.744 l 0,-6.546 c 0,-0.406 0.144,-0.862 0.144,-1.148 0,-0.334 -0.214,-0.454 -0.358,-0.454 -0.382,0 -0.334,0.072 -1.196,0.43 -1.338,0.55 -1.936,0.574 -1.936,0.956 l 0,0 z m 1.362,-4.994 c 0,0.38 0.478,1.362 1.17,1.362 0.214,0 1.124,-0.74 1.124,-1.314 0,-0.478 -0.55,-1.362 -1.098,-1.362 -0.526,0 -1.196,1.004 -1.196,1.314 l 0,0 z"
       id="path51" />
    <path
       inkscape:connector-curvature="0"
       d="m 193.54608,953.64628 0,8.16601 c 0.93,-0.964 2.36,-1.448 4.29,-1.448 1.93,0 3.35999,0.482 4.28999,1.448 l 0,-8.16601 c 0,-1.62 -1.448,-2.43 -4.34199,-2.43 -2.826,0.002 -4.238,0.812 -4.238,2.43 l 0,0 0,0 z"
       id="path53" />
    <path
       inkscape:connector-curvature="0"
       d="m 219.11208,1050.6922 c 0,0.264 0.048,0.598 0.048,0.86 0,0.478 0.334,0.646 0.932,0.646 2.51,0 3.154,-3.37 3.154,-5.616 l 0,-7.742 c 0,-0.288 0.048,-0.742 0.048,-1.124 l 0,-0.264 c 0,-0.31 -0.024,-0.548 -0.286,-0.548 -0.192,0 -0.622,0.262 -1.124,0.502 -1.41,0.668 -2.104,0.548 -2.104,0.86 0,0.214 0.168,0.238 0.382,0.238 1.386,0 1.41,0.884 1.41,1.41 l 0,7.266 c 0,3.034 -0.142,3.846 -0.548,3.846 -0.382,0 -0.884,-1.028 -1.386,-1.028 -0.406,0 -0.526,0.288 -0.526,0.694 l 0,0 z m 2.222,-17.396 c 0,0.382 0.526,1.268 1.218,1.268 0.214,0 1.05,-0.694 1.05,-1.268 0,-0.476 -0.596,-1.218 -1.146,-1.218 -0.524,-0 -1.122,0.81 -1.122,1.218 l 0,0 z"
       id="path55" />
    <path
       inkscape:connector-curvature="0"
       d="m 217.63207,945.50623 0,8.16805 c 0.93001,-0.966 2.36001,-1.45 4.29001,-1.45 1.93,0 3.36,0.482 4.29,1.45 l 0,-8.16805 c 0,-1.62 -1.448,-2.43 -4.342,-2.43 -2.824,0 -4.23801,0.81 -4.23801,2.43 l 0,0 0,0 z"
       id="path57" />
    <path
       inkscape:connector-curvature="0"
       d="m 236.55008,1030.9542 c 0,0.216 0.214,0.264 0.478,0.264 0.192,0 0.312,-0.024 0.478,-0.024 0.454,0 1.124,0.192 1.124,1.792 l -0.024,10.61 c 0,0.192 -0.024,0.598 -0.024,1.052 0,1.48 -0.072,1.91 -0.836,2.198 -0.168,0.048 -0.598,0.096 -0.598,0.406 0,0.264 0.262,0.288 0.574,0.288 1.028,0 1.052,-0.096 1.744,-0.096 0.764,0 2.08,0.142 2.318,0.142 0.096,0 0.74,-0.046 0.74,-0.38 0,-0.456 -1.434,-0.24 -1.792,-0.766 -0.406,-0.572 -0.334,-0.024 -0.43,-2.27 0,-0.168 -0.024,-0.288 -0.024,-0.406 0,-0.622 0.454,-1.1 0.742,-1.1 0.096,0 0.19,0.048 0.262,0.144 0.764,0.932 3.68,4.708 4.396,4.708 0.24,0 2.174,0.024 2.486,0.024 0.668,0 0.98,0 0.98,-0.406 0,-0.574 -1.004,0.214 -2.534,-1.124 -0.764,-0.67 -2.006,-1.912 -3.728,-4.014 -0.144,-0.192 -0.262,-0.382 -0.262,-0.55 0,-0.288 0,-0.238 2.39,-2.054 0.908,-0.668 0.884,-0.694 1.124,-0.836 1.434,-0.908 2.15,-0.548 2.15,-1.028 0,-0.144 -0.096,-0.214 -0.622,-0.214 -0.55,0 -1.578,0.07 -3.512,0.12 -0.192,0 -0.31,-0.024 -0.43,-0.024 -0.214,0 -0.288,0.096 -0.288,0.238 0,0.43 1.076,0.36 1.076,0.932 0,0.144 -0.166,0.502 -3.344,3.036 -0.31,0.262 -0.43,0.548 -0.764,0.548 -0.072,0 -0.096,-0.502 -0.096,-1.004 l 0,-0.5 c 0,-1.626 0.072,-3.276 0.072,-4.9 0,-4.516 0.214,-5.804 0.214,-6.044 0,-0.214 -0.072,-0.454 -0.334,-0.454 -0.262,0 -0.598,0.192 -0.79,0.31 -0.908,0.548 -0.502,0.382 -1.744,0.764 -0.91,0.284 -1.172,0.428 -1.172,0.618 l 0,0 z"
       id="path59" />
    <path
       inkscape:connector-curvature="0"
       d="m 238.77408,937.36622 0,8.16801 c 0.93,-0.964 2.36,-1.45 4.29,-1.45 1.93,0 3.36,0.484 4.29,1.45 l 0,-8.16801 c 0,-1.618 -1.448,-2.43 -4.342,-2.43 -2.826,0 -4.238,0.812 -4.238,2.43 l 0,0 0,0 z"
       id="path61" />
    <path
       inkscape:connector-curvature="0"
       d="m 261.35011,1030.8582 c 0,0.168 0.12,0.192 0.262,0.192 0.478,0 0.79,0.026 0.956,0.096 0.288,0.12 0.574,0.79 0.574,1.53 0,3.036 -0.094,8.126 -0.094,10.156 l 0,1.768 c 0,0.24 0.024,0.43 0.024,0.622 0,0.838 -0.072,1.292 -0.646,1.554 -0.358,0.166 -0.812,0.096 -0.812,0.526 0,0.07 0.12,0.238 0.382,0.238 0.526,0 0.836,-0.192 1.936,-0.192 0.74,0 1.912,0.168 2.414,0.168 0.454,0 0.742,-0.072 0.742,-0.334 0,-0.168 -0.144,-0.36 -0.31,-0.36 -1.816,0 -1.936,-0.98 -1.936,-1.744 l 0,-7.122 c 0,-1.196 0.048,-1.146 0.048,-3.178 l 0,-1.338 c 0,-2.176 0.19,-3.274 0.19,-3.632 0,-0.238 -0.048,-0.454 -0.286,-0.454 -0.478,0 -1.196,0.43 -1.816,0.668 -1.34,0.526 -1.628,0.382 -1.628,0.836 l 0,0 z"
       id="path63" />
    <line
       style="fill:none;stroke:#000000;stroke-width:1.00800073;stroke-miterlimit:10"
       stroke-miterlimit="10"
       x1="254.75011"
       y1="931.91217"
       x2="273.66806"
       y2="931.91217"
       id="line65" />
    <path
       inkscape:connector-curvature="0"
       d="m 259.91811,929.22421 0,8.16601 c 0.93,-0.964 2.36,-1.448 4.29,-1.448 1.928,0 3.36,0.482 4.29,1.448 l 0,-8.16601 c 0,-1.62 -1.448,-2.43 -4.342,-2.43 -2.826,0.002 -4.238,0.81 -4.238,2.43 l 0,0 0,0 z"
       id="path67" />
    <path
       inkscape:connector-curvature="0"
       d="m 279.57411,1038.1462 c 0,0.764 1.602,-0.288 1.602,1.386 0,0.978 0.024,1.982 0.024,2.914 0,1.698 -0.048,3.13 -0.19,3.632 -0.334,1.028 -1.1,0.548 -1.1,1.05 0,0.168 0.024,0.36 0.574,0.36 0.358,0 0.932,-0.072 1.888,-0.072 1.028,0 1.65,0.072 2.008,0.072 0.502,0 0.502,-0.096 0.502,-0.36 0,-0.548 -2.008,0.288 -2.008,-2.2 l 0,-4.492 0,-0.334 c 0,-0.932 1.244,-1.744 2.582,-1.744 1.552,0 2.438,1.146 2.438,2.794 0,0.144 0.048,0 0.048,1.506 0,2.582 -0.024,2.27 -0.024,2.606 0,1.384 -0.382,1.434 -0.55,1.48 -0.478,0.192 -0.55,0.264 -0.55,0.478 0,0.238 0.36,0.31 0.526,0.31 0.214,0 1.744,-0.12 2.174,-0.12 0.692,0 1.338,0.12 1.744,0.12 0.142,0 0.454,0 0.454,-0.264 0,-0.07 -0.072,-0.334 -0.43,-0.38 -1.458,-0.214 -1.648,-0.958 -1.648,-2.272 l 0,-2.03 c 0,-2.438 -0.144,-2.724 -0.144,-3.036 0,-0.214 1.266,-1.292 2.46,-1.292 0.716,0 1.386,0.264 1.792,0.74 0.766,0.934 0.908,0.646 0.908,5.926 l 0,0.382 c 0,0.478 -0.024,0.908 -0.096,1.1 -0.19,0.456 -1.098,0.382 -1.098,0.86 0,0.192 0.31,0.24 0.574,0.24 0.502,0 1.052,-0.096 1.72,-0.096 0.478,0 1.266,0.096 1.57801,0.096 0.262,0 0.788,0 0.788,-0.36 0,-0.406 -0.716,-0.406 -0.908,-0.454 -0.62201,-0.192 -0.66801,-0.908 -0.66801,-2.176 l 0,-0.764 c 0,-0.836 -0.024,-1.864 -0.144,-3.036 -0.19,-1.84 -1.314,-3.584 -3.798,-3.584 -1.958,0 -3.106,1.958 -3.274,1.958 -0.24,0 -0.478,-1.886 -3.058,-1.886 -2.438,0 -3.058,1.72 -3.226,1.72 -0.142,0 -0.142,-0.144 -0.142,-0.288 0,-0.192 0.12,-0.716 0.12,-1.004 0,-0.382 -0.072,-0.694 -0.288,-0.694 -0.406,0 -0.548,0.144 -1.05,0.36 -1.034,0.466 -2.11,0.346 -2.11,0.848 l 0,0 z"
       id="path69" />
    <line
       style="fill:none;stroke:#000000;stroke-width:1.00800073;stroke-miterlimit:10"
       stroke-miterlimit="10"
       x1="279.26407"
       y1="931.91217"
       x2="298.1821"
       y2="931.91217"
       id="line71" />
    <path
       inkscape:connector-curvature="0"
       d="m 284.43211,921.0842 0,8.16601 c 0.93,-0.964 2.36,-1.446 4.29,-1.446 1.93,0 3.36,0.482 4.29,1.446 l 0,-8.16601 c 0,-1.62 -1.448,-2.428 -4.342,-2.428 -2.824,0 -4.238,0.81 -4.238,2.428 l 0,0 0,0 z"
       id="path73" />
  </g>
</svg>
